<?xml version="1.0" encoding="UTF-8"?>
<svg width="24px" height="24px" viewBox="0 0 24 24" version="1.1" xmlns="http://www.w3.org/2000/svg">
    <g stroke="none" stroke-width="1" fill="none" fill-rule="evenodd">
        <path d="M21.8047 2L13.3594 8.1875L14.9922 4.54688L21.8047 2Z" fill="#E17726"/>
        <path d="M2.19531 2L10.5469 8.25L9.00781 4.54688L2.19531 2Z" fill="#E27625"/>
        <path d="M18.8281 16.7031L16.5469 20.2031L21.4297 21.5469L22.8203 16.7812L18.8281 16.7031Z" fill="#E27625"/>
        <path d="M1.1875 16.7812L2.57031 21.5469L7.45312 20.2031L5.17969 16.7031L1.1875 16.7812Z" fill="#E27625"/>
        <path d="M7.21094 10.5L5.85156 12.5469L10.6875 12.7656L10.5156 7.5625L7.21094 10.5Z" fill="#E27625"/>
        <path d="M16.7891 10.5L13.4375 7.5L13.3125 12.7656L18.1484 12.5469L16.7891 10.5Z" fill="#E27625"/>
        <path d="M7.45312 20.2031L10.3594 18.7656L7.85156 16.8281L7.45312 20.2031Z" fill="#E27625"/>
        <path d="M13.6406 18.7656L16.5469 20.2031L16.1484 16.8281L13.6406 18.7656Z" fill="#E27625"/>
        <path d="M16.5469 20.2031L13.6406 18.7656L13.875 20.6562L13.8516 21.4844L16.5469 20.2031Z" fill="#D5BFB2"/>
        <path d="M7.45312 20.2031L10.1484 21.4844L10.1328 20.6562L10.3594 18.7656L7.45312 20.2031Z" fill="#D5BFB2"/>
        <path d="M10.1953 15.5L7.78906 14.7656L9.47656 13.9844L10.1953 15.5Z" fill="#233447"/>
        <path d="M13.8047 15.5L14.5234 13.9844L16.2188 14.7656L13.8047 15.5Z" fill="#233447"/>
        <path d="M7.45312 20.2031L7.875 16.7031L5.17969 16.7812L7.45312 20.2031Z" fill="#CC6228"/>
        <path d="M16.125 16.7031L16.5469 20.2031L18.8281 16.7812L16.125 16.7031Z" fill="#CC6228"/>
        <path d="M18.1484 12.5469L13.3125 12.7656L13.8047 15.5L14.5234 13.9844L16.2188 14.7656L18.1484 12.5469Z" fill="#CC6228"/>
        <path d="M7.78906 14.7656L9.47656 13.9844L10.1953 15.5L10.6875 12.7656L5.85156 12.5469L7.78906 14.7656Z" fill="#CC6228"/>
        <path d="M5.85156 12.5469L7.85156 16.8281L7.78906 14.7656L5.85156 12.5469Z" fill="#E27525"/>
        <path d="M16.2188 14.7656L16.1484 16.8281L18.1484 12.5469L16.2188 14.7656Z" fill="#E27525"/>
        <path d="M10.6875 12.7656L10.1953 15.5L10.8125 18.4375L10.9531 14.5469L10.6875 12.7656Z" fill="#E27525"/>
        <path d="M13.3125 12.7656L13.0547 14.5312L13.1875 18.4375L13.8047 15.5L13.3125 12.7656Z" fill="#E27525"/>
        <path d="M13.8047 15.5L13.1875 18.4375L13.6406 18.7656L16.1484 16.8281L16.2188 14.7656L13.8047 15.5Z" fill="#F5841F"/>
        <path d="M7.78906 14.7656L7.85156 16.8281L10.3594 18.7656L10.8125 18.4375L10.1953 15.5L7.78906 14.7656Z" fill="#F5841F"/>
        <path d="M13.8516 21.4844L13.875 20.6562L13.6562 20.4688H10.3438L10.1328 20.6562L10.1484 21.4844L7.45312 20.2031L8.35938 20.9375L10.3125 22.25H13.6797L15.6406 20.9375L16.5469 20.2031L13.8516 21.4844Z" fill="#C0AC9D"/>
        <path d="M13.6406 18.7656L13.1875 18.4375H10.8125L10.3594 18.7656L10.1328 20.6562L10.3438 20.4688H13.6562L13.875 20.6562L13.6406 18.7656Z" fill="#161616"/>
        <path d="M22.125 8.46875L22.8203 5.09375L21.8047 2L13.6406 7.875L16.7891 10.5L21.2812 11.7656L22.2656 10.625L21.8516 10.3281L22.5312 9.73438L22.0312 9.34375L22.7109 8.84375L22.125 8.46875Z" fill="#763E1A"/>
        <path d="M1.17969 5.09375L1.875 8.46875L1.27344 8.84375L1.95312 9.34375L1.45312 9.73438L2.13281 10.3281L1.71875 10.625L2.70312 11.7656L7.21094 10.5L10.3594 7.875L2.19531 2L1.17969 5.09375Z" fill="#763E1A"/>
        <path d="M21.2812 11.7656L16.7891 10.5L18.1484 12.5469L16.1484 16.8281L18.8281 16.7812H22.8203L21.2812 11.7656Z" fill="#F5841F"/>
        <path d="M7.21094 10.5L2.71875 11.7656L1.1875 16.7812H5.17969L7.85156 16.8281L5.85156 12.5469L7.21094 10.5Z" fill="#F5841F"/>
        <path d="M13.3125 12.7656L13.6406 7.875L14.9922 4.54688H9.00781L10.3594 7.875L10.6875 12.7656L10.8047 14.5625L10.8125 18.4375H13.1875L13.1953 14.5625L13.3125 12.7656Z" fill="#F5841F"/>
    </g>
</svg> 