<svg width="32" height="32" viewBox="0 0 32 32" fill="none" xmlns="http://www.w3.org/2000/svg">
<g clip-path="url(#clip0_2015_106)">
<path d="M19.2672 19.8816C13.219 21.696 8.21585 24.3424 5.08407 27.4432L4.9458 27.5808C5.77859 28.368 6.69176 29.072 7.6789 29.6704L7.89111 29.4112C8.74639 28.368 9.66279 27.36 10.6177 26.4096C13.1804 23.8592 16.1129 21.6512 19.2704 19.8784L19.2672 19.8816Z" fill="#F5F5F5"/>
<path d="M0.000488281 17.1936C0.241635 20.4288 1.44421 23.3952 3.33165 25.808L3.41846 25.7216C5.35735 23.8112 7.88145 22.0736 10.9264 20.56C13.5952 19.232 16.6594 18.0928 19.9617 17.1936H0.000488281Z" fill="#F5F5F5"/>
<path d="M12.3091 3.8976C17.7207 9.2832 24.5309 12.8448 32.0003 14.1952C31.0999 6.2112 24.2962 0 16.0294 0C13.8461 0 11.7658 0.4352 9.86536 1.2192C10.6371 2.1472 11.4603 3.0496 12.3091 3.8976Z" fill="#F5F5F5"/>
<path d="M5.08407 4.55682C8.21585 7.66082 13.219 10.304 19.2672 12.1216C16.1097 10.3456 13.1772 8.14081 10.6145 5.59042C9.66279 4.64322 8.74639 3.63522 7.88789 2.58882L7.67568 2.32962C6.68855 2.92802 5.77537 3.63202 4.9458 4.41922L5.08407 4.55682Z" fill="#F5F5F5"/>
<path d="M12.3091 28.1024C11.4571 28.9504 10.6339 29.8528 9.86536 30.7808C11.7626 31.5648 13.8461 32 16.0294 32C24.2962 32 31.0999 25.7888 32.0035 17.8016C24.5341 19.152 17.7239 22.7136 12.3123 28.0992L12.3091 28.1024Z" fill="#F5F5F5"/>
<path d="M10.9264 11.44C7.88145 9.92639 5.35735 8.18879 3.41846 6.27839L3.33165 6.19199C1.44421 8.60479 0.241635 11.5712 0.000488281 14.8064H19.9585C16.6562 13.9072 13.5952 12.768 10.9232 11.4368L10.9264 11.44Z" fill="#F5F5F5"/>
</g>
<defs>
<clipPath id="clip0_2015_106">
<rect width="32" height="32" fill="white"/>
</clipPath>
</defs>
</svg>
