<svg width="24" height="24" viewBox="0 0 24 24" fill="none" xmlns="http://www.w3.org/2000/svg">
<g clip-path="url(#clip0_2013_81)">
<mask id="mask0_2013_81" style="mask-type:luminance" maskUnits="userSpaceOnUse" x="0" y="0" width="24" height="24">
<path d="M24 0H0V24H24V0Z" fill="white"/>
</mask>
<g mask="url(#mask0_2013_81)">
<path d="M24 12C24 5.37258 18.6274 0 12 0C5.37258 0 0 5.37258 0 12C0 18.6274 5.37258 24 12 24C18.6274 24 24 18.6274 24 12Z" fill="#F5F5F5"/>
<path d="M13.8365 14.1834C10.4345 15.204 7.62017 16.6926 5.85854 18.4368L5.78076 18.5142C6.2492 18.957 6.76286 19.353 7.31813 19.6896L7.4375 19.5438C7.91859 18.957 8.43407 18.39 8.97122 17.8554C10.4127 16.4208 12.0623 15.1788 13.8383 14.1816L13.8365 14.1834Z" fill="#141416"/>
<path d="M2.99902 12.6714C3.13467 14.4912 3.81112 16.1598 4.8728 17.517L4.92163 17.4684C6.01226 16.3938 7.43206 15.4164 9.14483 14.565C10.646 13.818 12.3697 13.1772 14.2272 12.6714H2.99902Z" fill="#141416"/>
<path d="M9.92257 5.1924C12.9666 8.2218 16.7973 10.2252 20.9988 10.9848C20.4924 6.4938 16.6653 3 12.0152 3C10.7871 3 9.61695 3.2448 8.54797 3.6858C8.98207 4.2078 9.44512 4.7154 9.92257 5.1924Z" fill="#141416"/>
<path d="M5.85854 5.56319C7.62017 7.30919 10.4345 8.79599 13.8365 9.81839C12.0605 8.81939 10.4109 7.57919 8.96942 6.14459C8.43407 5.61179 7.91859 5.04479 7.43569 4.45619L7.31632 4.31039C6.76106 4.64699 6.2474 5.04299 5.78076 5.48579L5.85854 5.56319Z" fill="#141416"/>
<path d="M9.92257 18.8076C9.44332 19.2846 8.98027 19.7922 8.54797 20.3142C9.61515 20.7552 10.7871 21 12.0152 21C16.6653 21 20.4924 17.5062 21.0006 13.0134C16.7991 13.773 12.9684 15.7764 9.92437 18.8058L9.92257 18.8076Z" fill="#141416"/>
<path d="M9.14483 9.43499C7.43206 8.58359 6.01226 7.60619 4.92163 6.53159L4.8728 6.48299C3.81112 7.84019 3.13467 9.50879 2.99902 11.3286H14.2254C12.3679 10.8228 10.646 10.182 9.14303 9.43319L9.14483 9.43499Z" fill="#141416"/>
</g>
</g>
<defs>
<clipPath id="clip0_2013_81">
<rect width="24" height="24" fill="white"/>
</clipPath>
</defs>
</svg>
